<svg xmlns="http://www.w3.org/2000/svg" xmlns:xlink="http://www.w3.org/1999/xlink" width="500" zoomAndPan="magnify" viewBox="0 0 375 187.499995" height="250" preserveAspectRatio="xMidYMid meet" version="1.0"><defs><g/><clipPath id="e19daa23e5"><path d="M 8 5.777344 L 97 5.777344 L 97 96 L 8 96 Z M 8 5.777344 " clip-rule="nonzero"/></clipPath><clipPath id="3c4d07ee93"><path d="M 71 98 L 147 98 L 147 181.558594 L 71 181.558594 Z M 71 98 " clip-rule="nonzero"/></clipPath><clipPath id="1fe9bf64f2"><path d="M 52 114 L 119 114 L 119 181.558594 L 52 181.558594 Z M 52 114 " clip-rule="nonzero"/></clipPath><clipPath id="83acbfe6e1"><path d="M 28 5.777344 L 161.066406 5.777344 L 161.066406 167 L 28 167 Z M 28 5.777344 " clip-rule="nonzero"/></clipPath><clipPath id="2eb1eecb3b"><path d="M 17 5.777344 L 129 5.777344 L 129 123 L 17 123 Z M 17 5.777344 " clip-rule="nonzero"/></clipPath><clipPath id="b468fd6648"><rect x="0" width="250" y="0" height="98"/></clipPath><clipPath id="fdb338b7bd"><rect x="0" width="170" y="0" height="40"/></clipPath></defs><g clip-path="url(#e19daa23e5)"><path fill="#ffffff" d="M 12.65625 95.847656 C 10.304688 83.722656 21.089844 72.355469 21.199219 72.242188 L 21.207031 72.238281 L 96.683594 5.789062 L 79.671875 5.789062 L 17.804688 61.183594 C 10.957031 67.320312 7.75 76.332031 9.230469 85.296875 C 10.066406 90.320312 11.859375 94.277344 12.65625 95.847656 " fill-opacity="1" fill-rule="nonzero"/></g><g clip-path="url(#3c4d07ee93)"><path fill="#d49f42" d="M 71.300781 108.128906 L 130.726562 181.152344 L 146.789062 181.152344 L 80.84375 98.589844 L 71.300781 108.128906 " fill-opacity="1" fill-rule="nonzero"/></g><g clip-path="url(#1fe9bf64f2)"><path fill="#d49f42" d="M 52.78125 125.835938 L 97.128906 181.152344 L 118.195312 181.152344 L 64.375 114.542969 L 52.78125 125.835938 " fill-opacity="1" fill-rule="nonzero"/></g><g clip-path="url(#83acbfe6e1)"><path fill="#ffffff" d="M 59.789062 165.15625 C 59.65625 165.027344 59.511719 164.882812 59.363281 164.734375 C 59.289062 164.65625 59.207031 164.574219 59.125 164.492188 C 59.03125 164.394531 58.933594 164.296875 58.835938 164.195312 C 58.753906 164.113281 58.679688 164.035156 58.59375 163.945312 C 56.253906 161.515625 52.644531 157.445312 49.40625 152.433594 C 47.0625 148.8125 44.511719 144.261719 42.988281 139.335938 C 41.636719 132.789062 43.691406 125.863281 48.476562 120.96875 L 161.015625 5.789062 L 139.71875 5.789062 L 38.171875 106.664062 C 36.652344 108.171875 14.957031 129.785156 42.101562 166.21875 L 60.890625 166.21875 C 60.675781 166.023438 60.320312 165.683594 59.855469 165.222656 L 59.789062 165.15625 " fill-opacity="1" fill-rule="nonzero"/></g><g clip-path="url(#2eb1eecb3b)"><path fill="#ffffff" d="M 111.433594 5.78125 L 111.40625 5.800781 L 30.339844 81.382812 L 28.199219 83.382812 C 22.617188 88.589844 18.960938 95.554688 18.015625 103.007812 L 18.007812 103.042969 C 17.9375 103.492188 17.886719 103.933594 17.871094 104.359375 L 17.871094 104.402344 C 17.769531 105.710938 17.742188 107.039062 17.8125 108.371094 C 18.050781 112.996094 19.316406 117.992188 22.460938 122.839844 C 22.460938 122.839844 21.074219 111.269531 27.550781 104.707031 L 128.246094 5.835938 L 128.304688 5.78125 L 111.433594 5.78125 " fill-opacity="1" fill-rule="nonzero"/></g><g transform="matrix(1, 0, 0, 1, 123, 26)"><g clip-path="url(#b468fd6648)"><g fill="#ffffff" fill-opacity="1"><g transform="translate(0.842235, 80.768213)"><g><path d="M 42.296875 0 L 27.421875 -22.109375 L 19.9375 -13.828125 L 19.9375 0 L 5.625 0 L 5.625 -56.28125 L 19.9375 -56.28125 L 19.9375 -31.921875 L 41.484375 -56.28125 L 58.046875 -56.28125 L 37.140625 -32.96875 L 59.421875 0 Z M 42.296875 0 "/></g></g></g><g fill="#ffffff" fill-opacity="1"><g transform="translate(64.928507, 80.768213)"><g><path d="M 49.6875 -45.03125 L 19.9375 -45.03125 L 19.9375 -33.84375 L 46.796875 -33.84375 L 46.796875 -22.59375 L 19.9375 -22.59375 L 19.9375 -11.25 L 50.578125 -11.25 L 50.578125 0 L 5.625 0 L 5.625 -56.28125 L 49.6875 -56.28125 Z M 49.6875 -45.03125 "/></g></g></g><g fill="#ffffff" fill-opacity="1"><g transform="translate(123.144882, 80.768213)"><g><path d="M 49.6875 -45.03125 L 19.9375 -45.03125 L 19.9375 -33.84375 L 46.796875 -33.84375 L 46.796875 -22.59375 L 19.9375 -22.59375 L 19.9375 -11.25 L 50.578125 -11.25 L 50.578125 0 L 5.625 0 L 5.625 -56.28125 L 49.6875 -56.28125 Z M 49.6875 -45.03125 "/></g></g></g><g fill="#ffffff" fill-opacity="1"><g transform="translate(181.361258, 80.768213)"><g><path d="M 57.578125 0 L 44.953125 0 L 19.0625 -34.65625 L 19.0625 0 L 5.625 0 L 5.625 -56.28125 L 18.25 -56.28125 L 44.21875 -21.546875 L 44.21875 -56.28125 L 57.578125 -56.28125 Z M 57.578125 0 "/></g></g></g></g></g><g transform="matrix(1, 0, 0, 1, 163, 122)"><g clip-path="url(#fdb338b7bd)"><g fill="#ffffff" fill-opacity="1"><g transform="translate(1.511813, 29.797488)"><g><path d="M 19.71875 -2.796875 L 19.71875 0 L 3.375 0 L 3.375 -22.515625 L 19.265625 -22.515625 L 19.265625 -19.71875 L 6.59375 -19.71875 L 6.59375 -12.796875 L 17.875 -12.796875 L 17.875 -10.0625 L 6.59375 -10.0625 L 6.59375 -2.796875 Z M 19.71875 -2.796875 "/></g></g></g><g fill="#ffffff" fill-opacity="1"><g transform="translate(27.886038, 29.797488)"><g><path d="M 22.734375 -22.515625 L 22.734375 0 L 20.09375 0 L 6.59375 -16.78125 L 6.59375 0 L 3.375 0 L 3.375 -22.515625 L 6.015625 -22.515625 L 19.515625 -5.71875 L 19.515625 -22.515625 Z M 22.734375 -22.515625 "/></g></g></g><g fill="#ffffff" fill-opacity="1"><g transform="translate(58.827504, 29.797488)"><g><path d="M 19.71875 -2.796875 L 19.71875 0 L 3.375 0 L 3.375 -22.515625 L 19.265625 -22.515625 L 19.265625 -19.71875 L 6.59375 -19.71875 L 6.59375 -12.796875 L 17.875 -12.796875 L 17.875 -10.0625 L 6.59375 -10.0625 L 6.59375 -2.796875 Z M 19.71875 -2.796875 "/></g></g></g><g fill="#ffffff" fill-opacity="1"><g transform="translate(85.201729, 29.797488)"><g><path d="M 18.421875 0 L 13.5625 -6.90625 C 12.96875 -6.863281 12.5 -6.84375 12.15625 -6.84375 L 6.59375 -6.84375 L 6.59375 0 L 3.375 0 L 3.375 -22.515625 L 12.15625 -22.515625 C 15.070312 -22.515625 17.363281 -21.816406 19.03125 -20.421875 C 20.707031 -19.023438 21.546875 -17.101562 21.546875 -14.65625 C 21.546875 -12.925781 21.113281 -11.445312 20.25 -10.21875 C 19.394531 -9 18.175781 -8.113281 16.59375 -7.5625 L 21.9375 0 Z M 12.0625 -9.578125 C 14.09375 -9.578125 15.644531 -10.015625 16.71875 -10.890625 C 17.789062 -11.773438 18.328125 -13.03125 18.328125 -14.65625 C 18.328125 -16.289062 17.789062 -17.539062 16.71875 -18.40625 C 15.644531 -19.28125 14.09375 -19.71875 12.0625 -19.71875 L 6.59375 -19.71875 L 6.59375 -9.578125 Z M 12.0625 -9.578125 "/></g></g></g><g fill="#ffffff" fill-opacity="1"><g transform="translate(113.409283, 29.797488)"><g><path d="M 18.96875 -11.390625 L 22.0625 -11.390625 L 22.0625 -2.609375 C 20.945312 -1.679688 19.648438 -0.972656 18.171875 -0.484375 C 16.691406 0.00390625 15.144531 0.25 13.53125 0.25 C 11.257812 0.25 9.210938 -0.242188 7.390625 -1.234375 C 5.566406 -2.234375 4.132812 -3.601562 3.09375 -5.34375 C 2.0625 -7.09375 1.546875 -9.0625 1.546875 -11.25 C 1.546875 -13.4375 2.0625 -15.410156 3.09375 -17.171875 C 4.132812 -18.929688 5.570312 -20.300781 7.40625 -21.28125 C 9.238281 -22.269531 11.304688 -22.765625 13.609375 -22.765625 C 15.398438 -22.765625 17.03125 -22.46875 18.5 -21.875 C 19.96875 -21.289062 21.21875 -20.429688 22.25 -19.296875 L 20.265625 -17.296875 C 18.460938 -19.035156 16.285156 -19.90625 13.734375 -19.90625 C 12.015625 -19.90625 10.472656 -19.535156 9.109375 -18.796875 C 7.753906 -18.054688 6.691406 -17.023438 5.921875 -15.703125 C 5.148438 -14.390625 4.765625 -12.90625 4.765625 -11.25 C 4.765625 -9.625 5.148438 -8.148438 5.921875 -6.828125 C 6.691406 -5.515625 7.753906 -4.484375 9.109375 -3.734375 C 10.472656 -2.984375 12.003906 -2.609375 13.703125 -2.609375 C 15.710938 -2.609375 17.46875 -3.085938 18.96875 -4.046875 Z M 18.96875 -11.390625 "/></g></g></g><g fill="#ffffff" fill-opacity="1"><g transform="translate(143.06419, 29.797488)"><g><path d="M 12 -7.78125 L 12 0 L 8.8125 0 L 8.8125 -7.84375 L -0.125 -22.515625 L 3.3125 -22.515625 L 10.515625 -10.640625 L 17.75 -22.515625 L 20.9375 -22.515625 Z M 12 -7.78125 "/></g></g></g></g></g></svg>